<svg width="100" height="98" viewBox="0 0 100 98" fill="none" xmlns="http://www.w3.org/2000/svg">
<circle cx="60.8112" cy="60.1041" r="30" transform="rotate(-45 60.8112 60.1041)" fill="#101010"/>
<path d="M82.0244 38.8909C93.7401 50.6066 93.7401 69.6015 82.0244 81.3173C70.3087 93.033 51.3137 93.033 39.598 81.3173C27.8823 69.6015 27.8823 50.6066 39.598 38.8909C51.3137 27.1751 70.3087 27.1751 82.0244 38.8909ZM41.3198 79.5954C52.0846 90.3602 69.5378 90.3602 80.3025 79.5954C91.0673 68.8306 91.0673 51.3775 80.3025 40.6127C69.5378 29.848 52.0846 29.848 41.3198 40.6127C30.5551 51.3775 30.5551 68.8306 41.3198 79.5954Z" fill="#8C8C8C"/>
<circle cx="45.2548" cy="57.9828" r="2.5" transform="rotate(-45 45.2548 57.9828)" fill="#D9D9D9"/>
<circle cx="59.397" cy="43.8406" r="2.5" transform="rotate(-45 59.397 43.8406)" fill="#D9D9D9"/>
<rect x="10.9774" y="65.1533" width="5" height="21" transform="rotate(-90 10.9774 65.1533)" fill="#8C8C8C"/>
<rect x="60.7046" y="10.7132" width="5" height="21" fill="#8C8C8C"/>
<circle cx="9.8995" cy="61.5183" r="7" transform="rotate(-45 9.8995 61.5183)" fill="#3E3E3E"/>
<circle cx="61.5183" cy="9.89949" r="7" transform="rotate(-45 61.5183 9.89949)" fill="#3E3E3E"/>
<path d="M55.5079 73.8927C69.0041 72.1225 73.2612 67.5417 75.6604 53.7401" stroke="#BFBFBF"/>
</svg>
